# AST/ASF file generated using VICON BodyLanguage
# -----------------------------------------------
:version 1.10
:name VICON
:units
  mass 1.0
  length 0.45
  angle deg
:documentation
   .ast/.asf automatically generated from VICON data using
   VICON BodyBuilder and BodyLanguage model FoxedUp or BRILLIANT.MOD
:root
   order TX TY TZ RX RY RZ
   axis XYZ
   position 0 0 0  
   orientation 0 0 0 
:bonedata
  begin
     id 1 
     name lhipjoint
     direction 0.598477 -0.721498 0.348234 
     length 2.38516 
     axis 0 0 0  XYZ
  end
  begin
     id 2 
     name lfemur
     direction 0.34202 -0.939693 0  
     length 6.81097  
     axis 0 0 20  XYZ
    dof rx ry rz
    limits (-160.0 20.0)
           (-70.0 70.0)
           (-60.0 70.0)
  end
  begin
     id 3 
     name ltibia
     direction 0.34202 -0.939693 0   
     length 7.43697   
     axis 0 0 20   XYZ
    dof rx
    limits (-10.0 170.0)
  end
  begin
     id 4 
     name lfoot
     direction 0.0644912 -0.177188 0.982062   
     length 2.0384   
     axis -90 7.62852e-016 20   XYZ
    dof rx rz
    limits (-45.0 90.0)
           (-70.0 20.0)
  end
  begin
     id 5 
     name ltoes
     direction 1.53517e-011 -4.21905e-011 1   
     length 1.02854   
     axis -90 7.62852e-016 20   XYZ
    dof rx
    limits (-90.0 20.0)
  end
  begin
     id 6 
     name rhipjoint
     direction -0.591517 -0.726138 0.350474   
     length 2.36992  
     axis 0 0 0  XYZ 
  end
  begin
     id 7 
     name rfemur
     direction -0.34202 -0.939693 0   
     length 6.93503   
     axis 0 0 -20   XYZ
    dof rx ry rz
    limits (-160.0 20.0)
           (-70.0 70.0)
           (-70.0 60.0)
  end
  begin
     id 8 
     name rtibia
     direction -0.34202 -0.939693 0   
     length 7.45107   
     axis 0 0 -20   XYZ
    dof rx
    limits (-10.0 170.0)
 end
 begin
     id 9 
     name rfoot
     direction -0.0677555 -0.186157 0.980181   
     length 1.90244  
     axis -90 -7.62852e-016 -20   XYZ
    dof rx rz
    limits (-45.0 90.0)
           (-20.0 70.0)
  end
  begin
     id 10 
     name rtoes
     direction -1.53409e-011 -4.21428e-011 1   
     length 0.961454   
     axis -90 -7.62852e-016 -20   XYZ
    dof rx
    limits (-90.0 20.0)
  end
  begin
     id 11 
     name lowerback
     direction -0.0289484 0.992437 0.119291   
     length 1.96261   
     axis 0 0 0   XYZ
    dof rx ry rz
    limits (-20.0 45.0)
           (-30.0 30.0)
           (-30.0 30.0)
  end
  begin
     id 12 
     name upperback
     direction 0.0109352 0.999834 0.0146028   
     length 1.96894   
     axis 0 0 0   XYZ
    dof rx ry rz
    limits (-20.0 45.0)
           (-30.0 30.0)
           (-30.0 30.0)
  end
  begin
     id 13 
     name thorax
     direction 0.0232227 0.998895 -0.0408582   
     length 2.00029   
     axis 0 0 0   XYZ
    dof rx ry rz
    limits (-20.0 45.0)
           (-30.0 30.0)
           (-30.0 30.0)
  end
  begin
     id 14 
     name lowerneck
     direction -0.00291659 0.999583 0.0287188   
     length 1.72722   
     axis 0 0 0   XYZ
    dof rx ry rz
    limits (-20.0 45.0)
           (-30.0 30.0)
           (-30.0 30.0)
  end
  begin
     id 15 
     name upperneck
     direction 0.0277639 0.998467 -0.0478817   
     length 1.68525   
     axis 0 0 0   XYZ
    dof rx ry rz
    limits (-20.0 45.0)
           (-30.0 30.0)
           (-30.0 30.0)
  end
  begin
     id 16
     name head
     direction 0.00895921 0.999741 -0.020943  
     length 1.78934  
     axis 0 0 0   XYZ
    dof rx ry rz
    limits (-20.0 45.0)
           (-30.0 30.0)
           (-30.0 30.0)
  end
  begin
     id 17 
     name lclavicle
     direction 0.907972 0.393865 -0.143029  
     length 3.37543  
     axis 0 0 0   XYZ
    dof ry rz
    limits (-20.0 10.0)
           (0.0 20.0)
  end
  begin
     id 18 
     name lhumerus
     direction 1 -4.48915e-011 -1.10425e-027   
     length 4.94762   
     axis -180 -30 -90   XYZ
    dof rx ry rz
    limits (-60.0 90.0)
           (-90.0 90.0)
           (-90.0 90.0)
  end
  begin
     id 19
     name lradius
     direction 1 1.63657e-005 -9.44877e-006   
     length 3.11144   
     axis -180 -30 -90   XYZ
    dof rx
    limits (-10.0 170.0)
  end
  begin
     id 20
     name lwrist
     direction 1 -5.04565e-007 -1.8883e-005   
     length 1.55572   
     axis 1.22104e-015 90 90   XYZ
    dof ry
    limits (-180.0 0.0)
 end
  begin
     id 21 
     name lhand
     direction 1 -4.48949e-011 -2.20333e-027   
     length 0.686387   
     axis 1.40591e-015 90 90   XYZ
    dof rx rz
    limits (-90.0 90.0)
           (-45.0 45.0)
  end
  begin
     id 22 
     name lfingers
     direction 1 -4.49191e-011 -4.40665e-027   
     length 0.553383   
     axis 2.81182e-015 90 90   XYZ
    dof rx
    limits (0.0 90.0)
  end
  begin
     id 23
     name lthumb
     direction 0.707107 -6.35116e-011 0.707107   
     length 0.79455   
     axis -90 45 2.85299e-015   XYZ
    dof rx rz
    limits (-45.0 45.0)
           (-45.0 45.0)
  end
  begin
     id 24 
     name rclavicle
     direction -0.947168 0.319303 -0.0302977   
     length 3.53547  
     axis 0 0 0   XYZ 
    dof ry rz
    limits (-10.0 20.0)
           (-20.0 0.0)
  end
  begin
     id 25 
     name rhumerus
     direction -1 -0.000401632 0.000196042  
     length 4.77566   
     axis -180 30 90   XYZ
    dof rx ry rz
    limits (-90.0 60.0)
           (-90.0 90.0)
           (-90.0 90.0)
  end
  begin
     id 26 
     name rradius
     direction -1 -4.49012e-011 -4.87197e-027   
     length 3.21433   
     axis -180 30 90   XYZ
    dof rx
    limits (-10.0 170.0)
  end
  begin
     id 27 
     name rwrist
     direction -1 -4.48899e-011 -5.86351e-027   
     length 1.60716   
     axis 3.17445e-015 -90 -90   XYZ
    dof ry
    limits (-180.0 0.0)
  end
  begin
     id 28
     name rhand
     direction -0.999958 0.00678358 -0.00613214   
     length 0.625487   
     axis 7.48284e-015 -90 -90   XYZ
    dof rx rz
    limits (-90.0 90.0)
           (-45.0 45.0)
  end
  begin
     id 29
     name rfingers
     direction -1 -4.48756e-011 -2.3454e-026   
     length 0.505648   
     axis 1.49657e-014 -90 -90   XYZ
    dof rx
    limits (0.0 90.0)
  end
  begin
     id 30
     name rthumb
     direction -0.708559 0.00587598 0.705627   
     length 0.722099   
     axis -90 -45 -2.85299e-015   XYZ
    dof rx rz
    limits (-45.0 45.0)
           (-45.0 45.0)
  end
:hierarchy
  begin
    root lhipjoint rhipjoint lowerback
    lhipjoint lfemur
    lfemur ltibia
    ltibia lfoot
    lfoot ltoes
    rhipjoint rfemur
    rfemur rtibia
    rtibia rfoot
    rfoot rtoes
    lowerback upperback
    upperback thorax
    thorax lowerneck lclavicle rclavicle
    lowerneck upperneck
    upperneck head
    lclavicle lhumerus
    lhumerus lradius
    lradius lwrist
    lwrist lhand lthumb
    lhand lfingers
    rclavicle rhumerus
    rhumerus rradius
    rradius rwrist
    rwrist rhand rthumb
    rhand rfingers
  end

#!OML:ASF C:\Documents and Settings\Administrator\Desktop\SteveTeapot.ASF
:FULLY-SPECIFIED
:DEGREES
911
root 0.268055 16.5422 -7.54721 17.0895 -2.64117 1.77797
lowerback -14.6123 -0.858131 -2.57213
upperback -3.87556 -0.788374 0.550257
thorax 4.12988 -0.407183 1.89151
lowerneck -5.93181 -1.46573 -1.32011
upperneck 8.18883 -1.806 -0.406297
head 3.71868 -0.953823 0.00692956
rclavicle 1.10325e-014 -9.93923e-016
rhumerus -46.5104 36.3092 -105.129
rradius 87.7499
rwrist -18.6279
rhand -12.6569 -44.0772
rfingers 7.12502
rthumb 13.4239 -73.6247
lclavicle 1.10325e-014 -9.93923e-016
lhumerus -52.0207 -20.7621 89.7968
lradius 84.7531
lwrist 21.1052
lhand -5.98344 -19.1078
lfingers 7.12502
lthumb 19.8483 9.89875
rfemur -30.2083 -8.61865 20.1317
rtibia 36.7395
rfoot -26.3456 4.5655
rtoes -10.5322
lfemur -29.0204 5.56509 -23.3452
ltibia 33.8268
lfoot -20.0677 5.46326
ltoes -13.7732
912
root 0.26577 16.5433 -7.54224 17.1176 -2.23961 1.85467
lowerback -14.7957 -1.01411 -2.61169
upperback -3.81549 -0.981433 0.529652
thorax 4.30274 -0.505409 1.85524
lowerneck -6.03252 -1.45559 -1.27106
upperneck 8.1463 -1.79938 -0.364208
head 3.72337 -0.946987 0.0119151
rclavicle 6.85807e-015 3.97569e-016
rhumerus -46.921 37.4308 -105.692
rradius 89.2415
rwrist -18.8446
rhand -12.8754 -43.0349
rfingers 7.12502
rthumb 13.2133 -72.5962
lclavicle 6.85807e-015 3.97569e-016
lhumerus -51.5531 -21.1666 91.2144
lradius 84.7369
lwrist 20.1801
lhand -3.63825 -19.5911
lfingers 7.12502
lthumb 22.1013 9.16582
rfemur -30.1095 -8.61 20.0938
rtibia 36.7176
rfoot -26.375 4.06264
rtoes -10.6639
lfemur -29.0554 5.53306 -23.3684
ltibia 33.8389
lfoot -20.1508 5.04038
ltoes -13.4568
913
root 0.253403 16.5438 -7.53886 16.971 -2.52953 1.68526
lowerback -14.7855 -0.929096 -2.66342
upperback -3.70941 -0.863244 0.576944
thorax 4.40436 -0.449997 1.95558
lowerneck -6.16754 -1.45004 -1.3204
upperneck 8.1634 -1.79435 -0.259289
head 3.75778 -0.94153 0.0542706
rclavicle -5.64051e-015 3.18055e-015
rhumerus -47.0306 38.0618 -105.644
rradius 90.9382
rwrist -17.6902
rhand -10.3391 -42.6246
rfingers 7.12502
rthumb 15.6571 -72.0111
lclavicle -5.64051e-015 3.18055e-015
lhumerus -50.9239 -21.5953 92.4393
lradius 84.5414
lwrist 19.2533
lhand -2.67602 -19.6723
lfingers 7.12502
lthumb 23.0249 8.97237
rfemur -29.8692 -8.30142 20.2063
rtibia 36.6392
rfoot -26.387 3.97381
rtoes -10.7079
lfemur -28.8743 6.13751 -23.2582
ltibia 33.9153
lfoot -20.2926 4.76942
ltoes -13.3825
914
root 0.250033 16.5428 -7.53804 16.8246 -2.60939 1.57535
lowerback -14.6521 -0.889175 -2.61692
upperback -3.68116 -0.821848 0.59409
thorax 4.35936 -0.428991 1.95578
lowerneck -6.26199 -1.49288 -1.34624
upperneck 8.26275 -1.85471 -0.180211
head 3.81317 -0.96911 0.0805011
rclavicle -1.2424e-015 -7.15625e-015
rhumerus -47.0289 38.2805 -105.265
rradius 92.7738
rwrist -15.2569
rhand -3.58397 -44.6163
rfingers 7.12502
rthumb 22.1534 -73.367
lclavicle -1.2424e-015 -7.15625e-015
lhumerus -50.3174 -22.1178 93.6032
lradius 84.1761
lwrist 18.6685
lhand -9.52659 -21.2375
lfingers 7.12502
lthumb 16.4395 8.08592
rfemur -29.6666 -8.31285 20.3163
rtibia 36.5737
rfoot -26.3954 3.93273
rtoes -11.2636
lfemur -28.7311 6.33956 -23.1511
ltibia 33.9791
lfoot -20.3566 4.69539
ltoes -13.3183
915
root 0.243228 16.544 -7.54317 16.9475 -2.93451 1.36593
lowerback -14.7251 -0.7932 -2.56754
upperback -3.7641 -0.703922 0.638911
thorax 4.30509 -0.36901 1.99638
lowerneck -6.23928 -1.51996 -1.37917
upperneck 8.31951 -1.89573 -0.0973614
head 3.83049 -0.986994 0.11144
rclavicle 9.72802e-015 6.95746e-015
rhumerus -48.3845 39.8165 -106.663
rradius 95.2432
rwrist -18.0522
rhand -4.99252 -42.0382
rfingers 7.12502
rthumb 20.8006 -70.9433
lclavicle 9.72802e-015 6.95746e-015
lhumerus -49.8004 -22.6346 94.6541
lradius 83.7844
lwrist 18.1328
lhand -6.03163 -20.7193
lfingers 7.12502
lthumb 19.802 8.292
rfemur -29.8283 -8.04433 20.5232
rtibia 36.4964
rfoot -26.3756 3.98819
rtoes -12.0548
lfemur -28.9157 6.61389 -22.9863
ltibia 34.0649
lfoot -20.396 4.70453
ltoes -13.102
916
root 0.237806 16.5446 -7.5465 17.0755 -3.16409 1.28204
lowerback -14.8753 -0.735344 -2.60354
upperback -3.87687 -0.619034 0.630817
thorax 4.26294 -0.325656 2.02338
lowerneck -5.95932 -1.51857 -1.32016
upperneck 8.26277 -1.90518 -0.0880019
head 3.75454 -0.989284 0.106231
rclavicle -2.23633e-016 9.93923e-016
rhumerus -48.6725 40.6342 -106.877
rradius 97.142
rwrist -16.7515
rhand -10.976 -38.0284
rfingers 7.12502
rthumb 15.0436 -67.4618
lclavicle -2.23633e-016 9.93923e-016
lhumerus -49.5086 -23.0965 95.6081
lradius 83.508
lwrist 17.5645
lhand -8.15963 -21.5951
lfingers 7.12502
lthumb 17.7552 7.61428
rfemur -29.9549 -7.6371 20.5512
rtibia 36.4435
rfoot -26.2511 3.86291
rtoes -11.9978
lfemur -29.1017 6.83618 -22.9589
ltibia 34.1421
lfoot -20.4306 4.81235
ltoes -13.4505
917
root 0.238453 16.5449 -7.55026 17.1017 -3.20737 1.1514
lowerback -14.8714 -0.710459 -2.46781
upperback -3.9442 -0.607553 0.633926
thorax 4.18812 -0.317523 1.95204
lowerneck -5.77083 -1.48148 -1.27166
upperneck 8.21233 -1.86581 -0.0572458
head 3.69914 -0.966839 0.111627
rclavicle 1.55922e-015 -8.15017e-015
rhumerus -49.0619 41.7225 -107.393
rradius 99.2374
rwrist -17.496
rhand -5.52468 -41.2243
rfingers 7.12502
rthumb 20.2892 -70.1846
lclavicle 1.55922e-015 -8.15017e-015
lhumerus -49.2715 -23.4294 96.4123
lradius 83.3846
lwrist 17.2118
lhand -8.30782 -20.7509
lfingers 7.12502
lthumb 17.6126 8.47136
rfemur -29.9574 -7.39678 20.6454
rtibia 36.4084
rfoot -26.1106 3.74704
rtoes -11.4049
lfemur -29.1733 6.84205 -22.8195
ltibia 34.2089
lfoot -20.461 4.88943
ltoes -13.7197
918
root 0.24143 16.5449 -7.55666 17.1967 -3.34173 1.01249
lowerback -14.9301 -0.672184 -2.30479
upperback -3.97126 -0.581145 0.646423
thorax 4.18885 -0.303381 1.87749
lowerneck -5.8448 -1.43633 -1.17072
upperneck 8.21778 -1.80502 -0.152721
head 3.7128 -0.937711 0.0648687
rclavicle -2.17421e-015 5.76476e-015
rhumerus -49.2524 42.4664 -107.644
rradius 101.544
rwrist -18.3691
rhand -7.80586 -39.1726
rfingers 7.12502
rthumb 18.0956 -68.3508
lclavicle -2.17421e-015 5.76476e-015
lhumerus -48.9759 -23.7378 97.09
lradius 83.3516
lwrist 17.1434
lhand -8.44105 -21.0465
lfingers 7.12502
lthumb 17.4844 8.1872
rfemur -30.1056 -7.23016 20.7715
rtibia 36.4074
rfoot -26.0191 3.67157
rtoes -11.5077
lfemur -29.3111 6.83867 -22.7058
ltibia 34.2409
lfoot -20.3992 5.00518
ltoes -13.5887
919
root 0.242295 16.5452 -7.56117 17.2458 -3.47159 1.02006
lowerback -15.0316 -0.655591 -2.28462
upperback -3.94749 -0.557691 0.603475
thorax 4.26704 -0.292887 1.82471
lowerneck -5.90054 -1.424 -1.02586
upperneck 8.14904 -1.78658 -0.319367
head 3.69586 -0.931022 -0.0146631
rclavicle 6.8208e-015 -9.74045e-015
rhumerus -49.2073 42.9839 -107.633
rradius 103.941
rwrist -19.3826
rhand -6.98913 -38.673
rfingers 7.12502
rthumb 18.8813 -67.7767
lclavicle 6.8208e-015 -9.74045e-015
lhumerus -48.5175 -24.0907 97.6076
lradius 83.2011
lwrist 17.2369
lhand -10.4047 -23.252
lfingers 7.12502
lthumb 15.5939 6.1394
rfemur -30.2063 -7.11285 20.7417
rtibia 36.432
rfoot -26.0018 3.61608
rtoes -11.69
lfemur -29.3691 6.87039 -22.7521
ltibia 34.2388
lfoot -20.3805 5.05347
ltoes -13.3325
920
root 0.240436 16.5468 -7.56579 17.2488 -3.5225 1.17557
lowerback -15.1506 -0.709743 -2.42279
upperback -3.84077 -0.600598 0.532511
thorax 4.44648 -0.318164 1.8195
lowerneck -6.06098 -1.3912 -0.954367
upperneck 8.05586 -1.7405 -0.398512
head 3.69279 -0.909125 -0.0517799
rclavicle -4.37947e-015 -4.96962e-015
rhumerus -48.6796 43.4995 -107.3
rradius 106.256
rwrist -20.41
rhand -5.42522 -39.1429
rfingers 7.12502
rthumb 20.3848 -68.093
lclavicle -4.37947e-015 -4.96962e-015
lhumerus -47.9275 -24.3982 97.9347
lradius 83.2587
lwrist 17.7171
lhand -8.66573 -20.4161
lfingers 7.12502
lthumb 17.2682 8.83674
rfemur -30.2775 -7.02291 20.5534
rtibia 36.4884
rfoot -25.9658 3.57299
rtoes -11.3663
lfemur -29.3791 6.84084 -22.9174
ltibia 34.1986
lfoot -20.3559 4.99313
ltoes -12.8437
921
root 0.241069 16.547 -7.56767 17.2886 -3.51387 1.34359
lowerback -15.457 -0.791889 -2.47665
upperback -3.65282 -0.685309 0.433704
thorax 4.81458 -0.366471 1.72742
lowerneck -6.4196 -1.30676 -0.883248
upperneck 8.08406 -1.62594 -0.439977
head 3.77189 -0.852262 -0.0751664
rclavicle 5.15598e-015 1.09332e-014
rhumerus -47.8198 43.9753 -106.77
rradius 108.526
rwrist -21.2892
rhand -4.20977 -39.655
rfingers 7.12502
rthumb 21.5525 -68.4758
lclavicle 5.15598e-015 1.09332e-014
lhumerus -47.3142 -24.5752 98.0443
lradius 83.7185
lwrist 18.4205
lhand -8.4502 -19.7006
lfingers 7.12502
lthumb 17.4756 9.53391
rfemur -30.3869 -7.0799 20.3716
rtibia 36.5789
rfoot -26.0185 3.59271
rtoes -11.3302
lfemur -29.407 6.82838 -23.1145
ltibia 34.1158
lfoot -20.2854 4.88971
ltoes -12.7405
